<?xml version="1.0" encoding="utf-8"?>
<!-- Generator: Adobe Illustrator 16.0.0, SVG Export Plug-In . SVG Version: 6.00 Build 0)  -->
<!DOCTYPE svg PUBLIC "-//W3C//DTD SVG 1.1//EN" "http://www.w3.org/Graphics/SVG/1.1/DTD/svg11.dtd">
<svg version="1.1" id="Layer_1" xmlns="http://www.w3.org/2000/svg" xmlns:xlink="http://www.w3.org/1999/xlink" x="0px" y="0px"
	 width="222px" height="83px" viewBox="0 0 222 83" enable-background="new 0 0 222 83" xml:space="preserve">
<g>
	<path fill="#FFFFFF" d="M80.468,6.441c0.689-0.563,1.018-1.474,0.836-2.319c-0.128-0.591-0.5-1.025-0.997-1.159l-0.064-0.017
		l-0.065,0.011c-0.144,0.022-0.296,0.035-0.451,0.035c-0.893,0-1.789-0.375-2.577-0.704c-0.615-0.256-1.145-0.478-1.58-0.478
		c-0.272,0-0.495,0.086-0.661,0.258l-0.038,0.05c-1.456,2.285-3.476,4.181-5.1,5.705c-2.038,1.913-3.516,3.3-3.023,4.549
		c0.309,1.803,2.299,3.304,4.149,4.022c-4.492,8.428-9.751,19.361-14.842,29.94c-1.893,3.935-3.696,7.683-5.426,11.234
		c0.764-5.94,0.969-14.875-3.431-20.053c-2.889-3.401-7.346-4.671-13.18-3.745c-6.777,1.074-12.503,8.358-12.503,15.907
		c0,2.558,1.071,6.343,3.369,6.343h0.311V55.71c0-6.949,4.717-15.439,10.223-15.439l0.049-0.004c0.129-0.021,0.276-0.044,0.49,0.199
		c1.86,2.089,0.247,15.869-0.717,24.103c-0.472,4.029-0.813,6.939-0.694,7.685l0.075,0.496c0.398,2.671,1.225,8.215,5.659,8.281
		c0.292,0.105,0.589,0.158,0.886,0.158h0.001c3.952,0,7.936-9.496,13.966-23.869c5.5-13.111,12.345-29.43,22.229-46.516
		C78.199,9.527,79.941,6.873,80.468,6.441"/>
	<path fill="#FFFFFF" d="M165.01,39.95c-0.818,1.774-1.361,3.522-1.617,5.214c-4.506,2.918-7.918,4.85-9.766,5.537
		C155.742,46.245,160.66,42.227,165.01,39.95 M187.404,30.559c-1.188-1.157-1.699-2.131-1.652-3.137
		c0-2.545,1.393-3.217,2.131-3.217c0.596,0,0.98,0.153,1.174,0.465C189.674,25.675,188.467,28.421,187.404,30.559 M190.715,33.238
		c-0.398-0.297-0.787-0.589-1.16-0.875c2.162-4.583,2.682-8.348,1.418-10.354c-0.697-1.109-1.887-1.672-3.533-1.672
		c-3.719,0-7.689,1.902-7.689,7.24c0,3.431,2.098,6.233,4.475,9.025c-5.479,9.875-9.779,15.311-12.123,15.312l0,0
		c-0.229,0-0.43-0.053-0.619-0.162l-0.035-0.021c-0.045-0.188-0.07-0.367-0.07-0.544c0-1.911,1.377-4.203,2.707-6.419
		c1.424-2.376,2.898-4.833,2.898-7.073c0-1.889-3.445-2.937-6.412-3.488c-1.518-3.678-2.922-5.542-4.174-5.542
		c-5.168,0-19.305,10.591-19.305,18.688c0.113,5.862,3.896,7.778,5.189,7.778c1.521,0,5.199-2.646,10.941-7.863
		c-0.002,0.46,0.02,0.919,0.066,1.377c0.975,5.662,5.795,6.9,7.57,6.9c0.074,0,0.146,0,0.213,0h0.307
		c5.541,0,12.152-11.194,14.959-16.467c1.939,2.342,3.904,5.105,3.906,8.466c0.277,2.104-0.807,5.952-3.041,8.501
		c-1.441,1.644-3.164,2.512-4.98,2.512c-0.775,0-1.359-0.248-1.781-0.762c-1.209-1.46-0.641-4.52-0.635-4.55l0.07-0.37H179.5
		c-2.066,0-3.508,2.115-3.508,5.143c0,3.517,2.033,7.078,5.92,7.078c12.064,0,18.574-8.659,18.574-16.808
		C200.486,40.552,195.066,36.496,190.715,33.238"/>
	<path fill="#FFFFFF" d="M119.791,67.262c-3.559,2.601-7.322,3.918-11.204,3.918c-0.762,0-3.222-0.215-3.931-2.899
		C109.369,67.794,114.452,67.452,119.791,67.262 M80.318,41.974c-0.82,1.773-1.362,3.522-1.617,5.214
		c-4.506,2.918-7.917,4.85-9.767,5.536C71.052,48.271,75.969,44.249,80.318,41.974 M103.289,32.816
		c-2.516-0.249-2.59-0.722-2.59-0.776c0-1.329,3.819-5.87,5.028-6.016C105.845,26.464,105.301,28.556,103.289,32.816
		 M137.275,39.068c-0.527,1.615-1.139,3.318-1.789,4.968c-2.666,1.768-8.66,5.641-11.57,6.717
		C126.314,45.712,132.357,41.116,137.275,39.068 M137.797,60.823c5.699-8.792,9.32-18.63,9.32-21.618
		c0.172-3.552-3.762-4.625-6.254-4.949c-1.52-3.674-2.924-5.538-4.176-5.538c-5.168,0-19.305,10.59-19.305,18.687
		c0.018,0.906,0.129,1.771,0.332,2.571c-1.084,1.047-4.17,3.827-6.353,3.827c-0.419,0-0.771-0.1-1.095-0.319
		c-0.22-0.128-0.35-0.311-0.407-0.572c-0.377-1.74,2.56-5.876,4.921-9.199c2.059-2.901,3.32-4.724,3.32-5.631
		c0-2.583-4.641-5.108-7.334-5.108c-0.355,0-0.749,0.002-1.167,0.005c-0.478,0.001-0.989,0.004-1.517,0.004
		c-0.966,0-1.768-0.009-2.479-0.031c0.976-2.475,3.282-8.744,2.238-10.289c-0.168-0.249-0.413-0.38-0.709-0.38
		c-5.999,0-11.935,5.723-11.935,7.784c0,2.891,2.234,4.963,6.47,6.011c-4.516,8.685-10.801,17.89-14.133,17.891h-0.001
		c-0.274,0-0.517-0.063-0.741-0.196l-0.035-0.019c-0.048-0.188-0.07-0.366-0.07-0.543c0-1.913,1.375-4.204,2.705-6.42
		c1.425-2.377,2.899-4.832,2.899-7.073c0-1.888-3.446-2.937-6.411-3.488c-1.519-3.678-2.923-5.542-4.176-5.542
		c-5.167,0-19.304,10.591-19.304,18.688c0.113,5.862,3.898,7.778,5.19,7.778c1.52,0,5.199-2.645,10.941-7.865
		c-0.001,0.462,0.019,0.92,0.063,1.379c0.977,5.662,5.798,6.901,7.573,6.901c0.074,0,0.145-0.001,0.213-0.002l0.306,0.002
		c5.853,0,13.004-11.283,17.399-21.039c1.232,0.167,2.578,0.262,4.011,0.285c-1.731,2.104-7.855,10.081-5.949,15.501
		c0.848,2.411,3.169,3.967,6.909,4.627c0.184,0.03,0.378,0.044,0.577,0.044c3.044,0,6.886-3.497,8.691-5.33
		c1.17,2.428,3.146,3.525,4.246,3.525c1.98,0,7.375-4.562,11.938-8.774c-1.686,3.927-4.25,9.095-7.648,13.637
		c-4.244-0.212-8.514-0.319-12.692-0.319c-13.584,0-33.243,1.149-49.845,6.615l-1.282-0.5l-0.124-0.021
		c-0.12,0-0.511,0.052-0.528,0.723c-0.048,1.933,3.237,10.166,8.482,10.426l0.091,0.004l0.079-0.044
		c4.828-2.732,14.145-6.393,31.178-8.383c-0.466,1.732-0.259,4.39,1.305,6.664c1.223,1.778,3.683,3.898,8.461,3.898
		c0.113,0,0.228-0.002,0.336-0.005c7.197,0,14.219-4.042,20.879-12.018c11.668,0.089,24.666,0.776,38.643,2.043l0.793,0.071
		l-0.535-0.592C169.459,65.692,155.074,62.433,137.797,60.823"/>
</g>
</svg>
